<svg xmlns="http://www.w3.org/2000/svg" viewBox="0 0 1729 1060" preserveAspectRatio="xMidYMid" width="1729" height="1060" style="shape-rendering: auto; display: block; background: rgb(255, 255, 255);" xmlns:xlink="http://www.w3.org/1999/xlink"><g><defs>
<linearGradient y2="1" y1="0" x2="0" x1="0" id="lg-bk-n2c88aimwtj">
  <stop offset="0" stop-opacity="0" stop-color="#3369e7"></stop>
  <stop offset="0.8250000000000001" stop-opacity="1" stop-color="#3369e7"></stop>
</linearGradient>
<linearGradient y2="1" y1="0" x2="0" x1="0" id="lg-jg6mq6wfbyj">
  <stop offset="0" stop-color="#050f2c"></stop>
  <stop offset="0.37" stop-color="#003666"></stop>
  <stop offset="1" stop-color="#00aeff"></stop>
</linearGradient>
</defs>
<rect fill="url(#lg-bk-n2c88aimwtj)" height="1060" width="1729" y="0" x="0"></rect><g>
<path opacity="0.4" fill="url(#lg-jg6mq6wfbyj)" d="M0 699.6
C864.5 699.6 864.5 804.116 1729 804.116
C2593.5 804.116 2593.5 699.6 3458 699.6
C4322.5 699.6 4322.5 804.116 5187 804.116
C6051.5 804.116 6051.5 699.6 6916 699.6
L6916 1060 L0 1060 Z">
  <animateTransform values="-3458 0;0 0" begin="0s" keyTimes="0;1" repeatCount="indefinite" dur="25s" type="translate" attributeName="transform"></animateTransform>
</path>
<animateTransform values="0 0;0 10; 0" begin="0s" keyTimes="0;0.5;1" keySplines="0.3 0 0.7 1;0.3 0 0.7 1" calcMode="spline" repeatCount="indefinite" dur="25s" type="translate" attributeName="transform"></animateTransform>
</g><g>
<path opacity="0.4" fill="url(#lg-jg6mq6wfbyj)" d="M0 699.6
C864.5 699.6 864.5 804.116 1729 804.116
C2593.5 804.116 2593.5 699.6 3458 699.6
C4322.5 699.6 4322.5 804.116 5187 804.116
C6051.5 804.116 6051.5 699.6 6916 699.6
L6916 1060 L0 1060 Z">
  <animateTransform values="-3458 0;0 0" begin="-1.1666666666666667s" keyTimes="0;1" repeatCount="indefinite" dur="25s" type="translate" attributeName="transform"></animateTransform>
</path>
<animateTransform values="0 0;0 10; 0" begin="-8.333333333333334s" keyTimes="0;0.5;1" keySplines="0.3 0 0.7 1;0.3 0 0.7 1" calcMode="spline" repeatCount="indefinite" dur="25s" type="translate" attributeName="transform"></animateTransform>
</g><g>
<path opacity="0.4" fill="url(#lg-jg6mq6wfbyj)" d="M0 699.6
C864.5 699.6 864.5 804.116 1729 804.116
C2593.5 804.116 2593.5 699.6 3458 699.6
C4322.5 699.6 4322.5 804.116 5187 804.116
C6051.5 804.116 6051.5 699.6 6916 699.6
L6916 1060 L0 1060 Z">
  <animateTransform values="-3458 0;0 0" begin="-2.3333333333333335s" keyTimes="0;1" repeatCount="indefinite" dur="25s" type="translate" attributeName="transform"></animateTransform>
</path>
<animateTransform values="0 0;0 10; 0" begin="-16.666666666666668s" keyTimes="0;0.5;1" keySplines="0.3 0 0.7 1;0.3 0 0.7 1" calcMode="spline" repeatCount="indefinite" dur="25s" type="translate" attributeName="transform"></animateTransform>
</g><g></g></g><!-- [ldio] generated by https://loading.io --></svg>