<svg xmlns="http://www.w3.org/2000/svg" viewBox="0 0 100 100" preserveAspectRatio="xMidYMid" width="200" height="200" style="shape-rendering: auto; display: block; background: transparent;" xmlns:xlink="http://www.w3.org/1999/xlink"><g> <g transform="translate(50 50)">  <g transform="translate(-19 -19) scale(0.6)"> <g>
<animateTransform repeatCount="indefinite" begin="0s" dur="0.31645569620253167s" keyTimes="0;1" values="0;45" type="rotate" attributeName="transform"></animateTransform><path fill="#3e8cff" d="M31.35997276079435 21.46047782418268 L39.13814735384637 29.238652417234704 L29.238652417234704 39.13814735384637 L21.46047782418268 31.359972760794346 A38 38 0 0 1 7.0000000000000036 37.3496987939662 L7.0000000000000036 37.3496987939662 L7.000000000000004 48.3496987939662 L-6.999999999999999 48.3496987939662 L-7 37.3496987939662 A38 38 0 0 1 -21.46047782418268 31.35997276079435 L-21.46047782418268 31.35997276079435 L-29.2386524172347 39.13814735384637 L-39.138147353846364 29.238652417234704 L-31.359972760794346 21.460477824182682 A38 38 0 0 1 -37.3496987939662 7.000000000000007 L-37.3496987939662 7.000000000000007 L-48.3496987939662 7.000000000000009 L-48.3496987939662 -6.999999999999996 L-37.3496987939662 -6.999999999999997 A38 38 0 0 1 -31.35997276079435 -21.460477824182675 L-31.35997276079435 -21.460477824182675 L-39.13814735384638 -29.238652417234697 L-29.238652417234725 -39.13814735384635 L-21.4604778241827 -31.35997276079433 A38 38 0 0 1 -6.999999999999992 -37.3496987939662 L-6.999999999999992 -37.3496987939662 L-6.999999999999994 -48.3496987939662 L6.999999999999977 -48.3496987939662 L6.999999999999979 -37.3496987939662 A38 38 0 0 1 21.460477824182686 -31.359972760794342 L21.460477824182686 -31.359972760794342 L29.238652417234707 -39.138147353846364 L39.13814735384635 -29.238652417234725 L31.35997276079433 -21.4604778241827 A38 38 0 0 1 37.3496987939662 -6.999999999999995 L37.3496987939662 -6.999999999999995 L48.3496987939662 -6.999999999999997 L48.349698793966205 6.999999999999973 L37.349698793966205 6.999999999999976 A38 38 0 0 1 31.359972760794346 21.460477824182682 M0 -23A23 23 0 1 0 0 23 A23 23 0 1 0 0 -23"></path></g></g> <g transform="translate(19 19) scale(0.6)"> <g>
<animateTransform repeatCount="indefinite" begin="-0.15822784810126583s" dur="0.31645569620253167s" keyTimes="0;1" values="45;0" type="rotate" attributeName="transform"></animateTransform><path fill="#1f4f94" d="M-31.35997276079435 -21.460477824182675 L-39.13814735384638 -29.238652417234697 L-29.238652417234725 -39.13814735384635 L-21.4604778241827 -31.35997276079433 A38 38 0 0 1 -6.999999999999992 -37.3496987939662 L-6.999999999999992 -37.3496987939662 L-6.999999999999994 -48.3496987939662 L6.999999999999977 -48.3496987939662 L6.999999999999979 -37.3496987939662 A38 38 0 0 1 21.460477824182686 -31.359972760794342 L21.460477824182686 -31.359972760794342 L29.238652417234707 -39.138147353846364 L39.13814735384635 -29.238652417234725 L31.35997276079433 -21.4604778241827 A38 38 0 0 1 37.3496987939662 -6.999999999999995 L37.3496987939662 -6.999999999999995 L48.3496987939662 -6.999999999999997 L48.349698793966205 6.999999999999973 L37.349698793966205 6.999999999999976 A38 38 0 0 1 31.359972760794346 21.460477824182682 L31.359972760794346 21.460477824182682 L39.13814735384637 29.238652417234704 L29.238652417234732 39.13814735384635 L21.460477824182703 31.35997276079433 A38 38 0 0 1 6.9999999999999964 37.3496987939662 L6.9999999999999964 37.3496987939662 L6.999999999999995 48.3496987939662 L-7.000000000000009 48.3496987939662 L-7.000000000000007 37.3496987939662 A38 38 0 0 1 -21.46047782418263 31.359972760794385 L-21.46047782418263 31.359972760794385 L-29.238652417234643 39.13814735384642 L-39.13814735384634 29.238652417234736 L-31.359972760794328 21.460477824182703 A38 38 0 0 1 -37.34969879396619 7.000000000000032 L-37.34969879396619 7.000000000000032 L-48.34969879396619 7.0000000000000355 L-48.3496987939662 -7.000000000000002 L-37.3496987939662 -7.000000000000005 A38 38 0 0 1 -31.359972760794346 -21.460477824182682 M0 -23A23 23 0 1 0 0 23 A23 23 0 1 0 0 -23"></path></g></g></g><g></g></g><!-- [ldio] generated by https://loading.io --></svg>